<mxfile host="app.diagrams.net" modified="2024-04-23T17:47:55.092Z" agent="Mozilla/5.0 (Windows NT 10.0; Win64; x64) AppleWebKit/537.36 (KHTML, like Gecko) Chrome/124.0.0.0 Safari/537.36" etag="X2KVjeW2kCnV3NRigcP9" version="24.2.5" type="device">
  <diagram name="Страница — 1" id="d_UEtdth32szl66-XLRJ">
    <mxGraphModel dx="1167" dy="619" grid="1" gridSize="10" guides="1" tooltips="1" connect="1" arrows="1" fold="1" page="1" pageScale="1" pageWidth="827" pageHeight="1169" math="0" shadow="0">
      <root>
        <mxCell id="0" />
        <mxCell id="1" parent="0" />
        <mxCell id="MoDDoaAgGnnFDUU_t5Xx-4" style="edgeStyle=orthogonalEdgeStyle;rounded=0;orthogonalLoop=1;jettySize=auto;html=1;exitX=1;exitY=0.5;exitDx=0;exitDy=0;" edge="1" parent="1" source="MoDDoaAgGnnFDUU_t5Xx-1" target="MoDDoaAgGnnFDUU_t5Xx-2">
          <mxGeometry relative="1" as="geometry" />
        </mxCell>
        <mxCell id="MoDDoaAgGnnFDUU_t5Xx-6" style="edgeStyle=orthogonalEdgeStyle;rounded=0;orthogonalLoop=1;jettySize=auto;html=1;entryX=0;entryY=0.75;entryDx=0;entryDy=0;" edge="1" parent="1" source="MoDDoaAgGnnFDUU_t5Xx-1" target="MoDDoaAgGnnFDUU_t5Xx-3">
          <mxGeometry relative="1" as="geometry" />
        </mxCell>
        <mxCell id="MoDDoaAgGnnFDUU_t5Xx-1" value="Game&lt;div&gt;&lt;br&gt;&lt;div&gt;string id&lt;/div&gt;&lt;div&gt;string characters&lt;/div&gt;&lt;div&gt;string items&lt;/div&gt;&lt;/div&gt;" style="rounded=1;whiteSpace=wrap;html=1;" vertex="1" parent="1">
          <mxGeometry x="80" y="210" width="120" height="110" as="geometry" />
        </mxCell>
        <mxCell id="MoDDoaAgGnnFDUU_t5Xx-5" style="edgeStyle=orthogonalEdgeStyle;rounded=0;orthogonalLoop=1;jettySize=auto;html=1;entryX=0.5;entryY=0;entryDx=0;entryDy=0;" edge="1" parent="1" source="MoDDoaAgGnnFDUU_t5Xx-2" target="MoDDoaAgGnnFDUU_t5Xx-3">
          <mxGeometry relative="1" as="geometry" />
        </mxCell>
        <mxCell id="MoDDoaAgGnnFDUU_t5Xx-2" value="characteristic&lt;div&gt;&lt;br&gt;&lt;div&gt;string name&amp;nbsp;&lt;/div&gt;&lt;div&gt;level number&lt;/div&gt;&lt;div&gt;heatlh number&lt;/div&gt;&lt;div&gt;strength number&lt;/div&gt;&lt;div&gt;agility number&lt;/div&gt;&lt;div&gt;inteligence number&lt;/div&gt;&lt;div&gt;inventory string[]&lt;/div&gt;&lt;/div&gt;" style="rounded=1;whiteSpace=wrap;html=1;arcSize=20;" vertex="1" parent="1">
          <mxGeometry x="340" y="80" width="120" height="140" as="geometry" />
        </mxCell>
        <mxCell id="MoDDoaAgGnnFDUU_t5Xx-3" value="items&amp;nbsp;&amp;nbsp;&lt;div&gt;&lt;span style=&quot;background-color: initial;&quot;&gt;&lt;br&gt;&lt;/span&gt;&lt;/div&gt;&lt;div&gt;&lt;span style=&quot;background-color: initial;&quot;&gt;id string&amp;nbsp;&lt;/span&gt;&lt;div&gt;name string&lt;/div&gt;&lt;div&gt;type string&lt;/div&gt;&lt;div&gt;cost number&lt;/div&gt;&lt;div&gt;weight number&lt;/div&gt;&lt;/div&gt;" style="rounded=1;whiteSpace=wrap;html=1;" vertex="1" parent="1">
          <mxGeometry x="480" y="320" width="120" height="120" as="geometry" />
        </mxCell>
      </root>
    </mxGraphModel>
  </diagram>
</mxfile>
